<svg
   width="2000"
   height="2000"
   viewBox="0 0 529.16665 529.16668"
   version="1.1"
   id="svg8"
   xmlns:xlink="http://www.w3.org/1999/xlink"
   xmlns="http://www.w3.org/2000/svg"
   xmlns:svg="http://www.w3.org/2000/svg"
   xmlns:rdf="http://www.w3.org/1999/02/22-rdf-syntax-ns#"
   xmlns:cc="http://creativecommons.org/ns#"
   xmlns:dc="http://purl.org/dc/elements/1.1/">
  <defs
     id="defs2">
    <linearGradient
       id="linearGradient4534">
      <stop
         style="stop-color:#000000;stop-opacity:1;"
         offset="0"
         id="stop4532" />
    </linearGradient>
    <linearGradient
       id="linearGradient4524">
      <stop
         style="stop-color:#f12711;stop-opacity:1"
         offset="0"
         id="stop4520" />
      <stop
         style="stop-color:#f5af19;stop-opacity:1"
         offset="1"
         id="stop4522" />
    </linearGradient>
    <linearGradient
       xlink:href="#linearGradient4524"
       id="linearGradient6104"
       x1="77.548073"
       y1="32.416645"
       x2="451.61859"
       y2="32.416645"
       gradientUnits="userSpaceOnUse" />
  </defs>
  <metadata
     id="metadata5">
    <rdf:RDF>
      <cc:Work
         rdf:about="">
        <dc:format>image/svg+xml</dc:format>
        <dc:type
           rdf:resource="http://purl.org/dc/dcmitype/StillImage" />
      </cc:Work>
    </rdf:RDF>
  </metadata>
  <g
     id="layer1"
     transform="translate(0,232.16668)">
    <text
       xml:space="preserve"
       style="font-style:normal;font-variant:normal;font-weight:normal;font-stretch:normal;font-size:165.184px;line-height:1.25;font-family:sans-serif;-inkscape-font-specification:'sans-serif, Normal';font-variant-ligatures:normal;font-variant-caps:normal;font-variant-numeric:normal;font-variant-east-asian:normal;letter-spacing:0px;word-spacing:0px;fill:#ffffff;fill-opacity:1;stroke-width:4.12959"
       x="139.00163"
       y="279.47687"
       id="text4530"><tspan
         id="tspan4528"
         x="139.00163"
         y="279.47687"
         style="font-style:normal;font-variant:normal;font-weight:normal;font-stretch:normal;font-size:165.184px;font-family:sans-serif;-inkscape-font-specification:'sans-serif, Normal';font-variant-ligatures:normal;font-variant-caps:normal;font-variant-numeric:normal;font-variant-east-asian:normal;fill:#ffffff;fill-opacity:1;stroke-width:4.12959">DN</tspan></text>
    <g
       style="fill:#ffffff"
       id="g535"
       transform="matrix(0.38020823,0,0,0.38020823,71.552194,-233.46005)">
      <g
         id="g377"
         style="fill:#ffffff">
        <g
           id="path5839"
           style="fill:#ffffff">
          <path
             d="m 494.82,82.81 c -0.12,-0.89 -0.14,-1.73 -0.14,-2.65 0,-16.95 13.81,-30.67 30.84,-30.67 17.03,0 30.84,13.72 30.84,30.67 0,0.89 -0.03,1.76 -0.12,2.65 z"
             id="path152"
             style="fill:#ffffff" />
        </g>
        <g
           id="path5841"
           style="fill:#ffffff">
          <path
             d="m 527.89,206.17 v -33.09 h -139.49 0.05 c 1.94,18.61 17.6,33.09 36.63,33.09 z"
             id="path155"
             style="fill:#ffffff" />
        </g>
        <g
           id="path5843"
           style="fill:#ffffff">
          <path
             d="M 423.59,82.84 390.27,49.69 h 42.51 c 19.26,0 35.09,14.53 37.08,33.15 z"
             id="path158"
             style="fill:#ffffff" />
        </g>
        <g
           id="path5845"
           style="fill:#ffffff">
          <path
             d="M 363.11,206.39 H 323.6 l -0.05,0.12 c 3.12,-18.88 19.62,-33.29 39.48,-33.29 0,0 0.08,33.17 0.08,33.17 z"
             id="path161"
             style="fill:#ffffff" />
        </g>
        <g
           id="path5847"
           style="fill:#ffffff">
          <path
             d="M 518.02,247.55 H 362.97 c -19.7,0 -36.11,-14.17 -39.39,-32.86 l 78.85,0.17 h 76.52 c 19.7,0 36.11,14.19 39.39,32.86 z"
             id="path164"
             style="fill:#ffffff" />
        </g>
        <g
           id="path5849"
           style="fill:#ffffff">
          <path
             d="m 404.59,296.48 -33.17,33.33 h 269.12 c 19.34,0 35.23,-14.67 37.11,-33.41 l 0.03,0.08 z"
             id="path167"
             style="fill:#ffffff" />
        </g>
        <g
           id="path5851"
           style="fill:#ffffff">
          <path
             d="m 629.3,82.84 33.32,-33.17 h -42.5 v 0.03 c -19.26,0 -35.09,14.53 -37.08,33.15 0,-0.01 46.26,-0.01 46.26,-0.01 z"
             id="path170"
             style="fill:#ffffff" />
        </g>
        <g
           id="polygon5853"
           style="fill:#ffffff">
          <path
             d="m 586.19,124.05 0.18,-0.12 33.29,-33.19 v -0.13 l -189.08,0.31 33.19,33.12 h 122.42 z"
             id="path173"
             style="fill:#ffffff" />
        </g>
        <g
           id="path5855"
           style="fill:#ffffff">
          <path
             d="M 527.89,247.59 V 214.4 l 156.04,0.07 h 0.08 c -1.97,18.65 -17.82,33.15 -37.08,33.15 z"
             id="path176"
             style="fill:#ffffff" />
        </g>
        <g
           id="path5857"
           style="fill:#ffffff">
          <path
             d="m 536.16,206.43 33.5,-33.19 h 96.44 l 0.07,-0.03 c -1.97,18.63 -17.84,33.15 -37.08,33.15 z"
             id="path179"
             style="fill:#ffffff" />
        </g>
        <g
           id="path5859"
           style="fill:#ffffff">
          <path
             d="m 415.09,255.63 h 277.86 c -2.03,18.58 -17.72,33.19 -36.91,33.19 H 451.95 c -19.23,-0.01 -34.83,-14.61 -36.86,-33.19 z"
             id="path182"
             style="fill:#ffffff" />
        </g>
        <g
           id="path5861"
           style="fill:#ffffff">
          <path
             d="m 375.81,370.71 v 0.05 l -43.4,43.02 -23.47,-23.56 -0.09,0.12 h 0.09 l 53.03,-52.58 h 267.95 l 31.92,-0.05 c -2.05,18.57 -17.85,33 -37.06,33 0.01,0 -248.97,0 -248.97,0 z"
             id="path185"
             style="fill:#ffffff" />
        </g>
        <g
           id="path5863"
           style="fill:#ffffff">
          <path
             d="m 392.53,411.96 211.96,0.09 c 19.25,0 35.12,-14.53 37.08,-33.15 l -263.21,0.03 -141.39,140.63 c 14.64,11.81 36.31,11.1 49.93,-2.45 z"
             id="path188"
             style="fill:#ffffff" />
        </g>
        <g
           id="path5865"
           style="fill:#ffffff">
          <path
             d="m 408.93,453.1 170.31,0.14 c 19.25,0 35.12,-14.55 37.08,-33.21 L 394.9,420.1 294.7,519.59 c 14.67,11.81 36.31,11.1 49.93,-2.5 0.01,-0.01 64.3,-63.99 64.3,-63.99 z"
             id="path191"
             style="fill:#ffffff" />
        </g>
        <g
           id="path5867"
           style="fill:#ffffff">
          <path
             d="m 411.33,461.51 h 183.22 l 23.54,33.15 H 425.34 l -23.03,22.88 c -13.6,13.55 -35.28,14.27 -49.91,2.5 l 58.85,-58.47 c -0.01,0 0.08,-0.06 0.08,-0.06 z"
             id="path194"
             style="fill:#ffffff" />
        </g>
        <g
           id="path5869"
           style="fill:#ffffff">
          <path
             d="m 652.91,543.52 -185.39,0.12 c 1.97,18.59 17.81,33.37 37.06,33.37 l 172.02,0.07 z"
             id="path197"
             style="fill:#ffffff" />
        </g>
        <g
           id="path5871"
           style="fill:#ffffff">
          <path
             d="m 624.16,502.76 -194.69,-0.12 c 1.97,18.66 17.82,33.34 37.06,33.34 l 181.14,0.07 z"
             id="path200"
             style="fill:#ffffff" />
        </g>
        <g
           id="path5873"
           style="fill:#ffffff">
          <path
             d="m 527.92,955.31 h -61.73 0.05 c 1.88,18.54 16.81,33.03 34.97,33.03 h 26.7 v -33.03 z"
             id="path203"
             style="fill:#ffffff" />
        </g>
        <g
           id="path5875"
           style="fill:#ffffff">
          <path
             d="M 664.22,906.07 H 439.48 l 0.05,-0.17 c 2.03,-18.61 17.89,-33.16 37.15,-33.16 h 150.31 c 19.29,0 35.14,14.55 37.16,33.16 z"
             id="path206"
             style="fill:#ffffff" />
        </g>
        <g
           id="path5877"
           style="fill:#ffffff">
          <path
             d="m 493.86,790.62 c 17.54,1.8 31.49,15.61 33.37,32.98 l 0.04,0.17 h -33.41 z"
             id="path209"
             style="fill:#ffffff" />
        </g>
        <g
           id="path5879"
           style="fill:#ffffff">
          <path
             d="m 476.48,831.59 h 187.74 l -0.07,0.17 c -2.02,18.65 -17.88,33.15 -37.16,33.15 h 0.05 -187.75 l 0.05,-0.12 c 2,-18.66 17.87,-33.2 37.14,-33.2 z"
             id="path212"
             style="fill:#ffffff" />
        </g>
        <g
           id="path5881"
           style="fill:#ffffff">
          <path
             d="m 529.94,913.74 h 80.99 l -0.05,0.12 c -1.99,18.66 -17.86,33.15 -37.15,33.15 h 0.07 -198.22 l 0.07,-0.12 c 2,-18.66 17.89,-33.15 37.14,-33.15 h 117.19 z"
             id="path215"
             style="fill:#ffffff" />
        </g>
        <g
           id="path5883"
           style="fill:#ffffff">
          <path
             d="m 562,164.95 -146.8,-0.12 -0.12,0.17 c 1.92,-18.71 17.81,-33.32 37.12,-33.32 l 109.8,0.08 93.31,0.09 0.09,-0.17 C 653.48,150.39 637.6,165 618.32,165 h -0.21 l -56.71,-0.05 z"
             id="path218"
             style="fill:#ffffff" />
        </g>
        <g
           id="path5885"
           style="fill:#ffffff">
          <path
             d="m 565.03,708.26 -54.4,0.05 c 1.97,18.61 17.8,33.38 37.06,33.38 h 16.17 l 0.89,0.29 H 589 l 0.37,0.05 h 74.83 l -0.07,-0.22 c -1.88,-17.94 -16.63,-32.27 -34.85,-33.33 l -39.99,0.07 -25.43,-0.29 z"
             id="path221"
             style="fill:#ffffff" />
        </g>
        <g
           id="path5887"
           style="fill:#ffffff">
          <path
             d="m 664.15,667.22 -163.31,0.05 c 1.97,18.61 17.8,33.38 37.06,33.38 l 92.5,-0.12 z"
             id="path224"
             style="fill:#ffffff" />
        </g>
        <g
           id="polygon5889"
           style="fill:#ffffff">
          <path
             d="m 574.78,659.2 96.17,-0.05 33.75,-33.33 -163.32,0.07 -33.46,33.32 h 66.86 z"
             id="path227"
             style="fill:#ffffff" />
        </g>
        <g
           id="path5891"
           style="fill:#ffffff">
          <path
             d="m 551.05,584.43 h -43.07 c 1.97,18.66 17.82,33.38 37.08,33.38 h 6.01 l 153.3,0.05 -0.05,-0.22 C 702.4,599.7 687.68,585.37 669.43,584.31 l -118.22,0.07 z"
             id="path230"
             style="fill:#ffffff" />
        </g>
        <g
           id="path5893"
           style="fill:#ffffff">
          <path
             d="m 522.87,749.51 h 155.18 c 18.88,0.46 34.37,14.72 36.34,33.09 l -128.91,-0.05 h -26.22 l -0.2,0.05 c -18.87,-0.45 -34.22,-14.72 -36.19,-33.09 z"
             id="path233"
             style="fill:#ffffff" />
        </g>
        <g
           id="path5895"
           style="fill:#ffffff">
          <path
             d="m 651.27,790.62 h -75.34 c -19.29,0 -35.14,14.55 -37.15,33.2 l 112.06,-0.05 h 26.42 c 19.25,0 35.12,-14.55 37.14,-33.2 z"
             id="path236"
             style="fill:#ffffff" />
        </g>
        <g
           id="path5897"
           style="fill:#ffffff">
          <path
             d="m 718.82,509.8 23.71,-23.56 23.82,-23.68 c 11.75,14.55 10.81,35.88 -2.76,49.41 l -21.32,21.23 -14.58,14.49 0.04,-0.05 c -13.61,13.55 -35.09,14.43 -49.76,2.74 z"
             id="path239"
             style="fill:#ffffff" />
        </g>
        <g
           id="path5899"
           style="fill:#ffffff">
          <path
             d="m 846.25,139.11 v -49.76 0.07 c 13.55,0 25.41,7.18 31.95,17.92 0,-0.01 -31.95,31.77 -31.95,31.77 z"
             id="path242"
             style="fill:#ffffff" />
        </g>
        <g
           id="path5901"
           style="fill:#ffffff">
          <path
             d="m 848.27,380.61 82.44,-82.02 -0.03,0.07 c 11.84,14.57 10.95,35.99 -2.65,49.51 l -82.45,82.02 0.03,-0.03 c -11.86,-14.55 -10.98,-35.98 2.66,-49.55 z"
             id="path245"
             style="fill:#ffffff" />
        </g>
        <g
           id="path5903"
           style="fill:#ffffff">
          <path
             d="m 918.91,299.65 -73.01,72.63 c -11.84,-14.55 -10.95,-36 2.66,-49.52 l 73.02,-72.66 h -0.03 c 11.84,14.58 10.96,35.97 -2.64,49.55 z"
             id="path248"
             style="fill:#ffffff" />
        </g>
        <g
           id="path5905"
           style="fill:#ffffff">
          <path
             d="m 805.14,307.29 0.26,-0.25 91.32,-90.86 35.55,-35.4 0.17,0.08 c 11.75,14.55 10.81,35.9 -2.76,49.42 l -74.81,74.39 0.04,-0.05 c -13.6,13.6 -35.1,14.46 -49.77,2.67 z"
             id="path251"
             style="fill:#ffffff" />
        </g>
        <g
           id="path5907"
           style="fill:#ffffff">
          <path
             d="m 895.49,147.97 -52.81,52.52 h 0.03 c -11.87,-14.62 -10.95,-36 2.66,-49.52 l 26.56,-26.44 53.27,-53.03 0.07,-0.03 c 11.87,14.57 10.95,35.99 -2.66,49.55 z"
             id="path254"
             style="fill:#ffffff" />
        </g>
        <g
           id="path5909"
           style="fill:#ffffff">
          <path
             d="m 689.23,178.52 v -46.9 l 0.09,-0.1 75.39,-75 -0.03,0.07 c 11.84,14.57 10.95,35.96 -2.66,49.51 z"
             id="path257"
             style="fill:#ffffff" />
        </g>
        <g
           id="path5911"
           style="fill:#ffffff">
          <path
             d="M 710.24,274.26 C 698.5,259.66 699.42,238.32 713,224.85 l 52.8,-52.6 23.46,23.33 z"
             id="path260"
             style="fill:#ffffff" />
        </g>
        <g
           id="path5913"
           style="fill:#ffffff">
          <path
             d="m 692.61,349.54 c -11.76,-14.57 -10.82,-35.91 2.76,-49.41 l 99.58,-99.07 23.44,23.34 z"
             id="path263"
             style="fill:#ffffff" />
        </g>
        <g
           id="path5915"
           style="fill:#ffffff">
          <path
             d="m 931.54,123.33 c 11.84,14.6 10.95,36 -2.69,49.52 l -273.2,271.91 c -11.83,-14.58 -10.95,-36.03 2.66,-49.55 0,0 273.23,-271.88 273.23,-271.88 z"
             id="path266"
             style="fill:#ffffff" />
        </g>
        <g
           id="path5917"
           style="fill:#ffffff">
          <path
             d="m 717.56,92.54 -28.02,27.9 V 81.02 c 1.32,-0.17 2.69,-0.25 4.06,-0.25 9.75,0 18.23,4.78 23.96,11.77 z"
             id="path269"
             style="fill:#ffffff" />
        </g>
        <g
           id="path5919"
           style="fill:#ffffff">
          <path
             d="m 765.46,346.84 c 11.55,14.34 10.84,35.19 -2.11,48.74 -0.2,0.23 -2.65,2.66 -2.88,2.88 l -25.58,25.51 -35.09,34.92 -15.27,15.18 0.04,-0.03 c -13.61,13.55 -35.09,14.43 -49.76,2.7 l 42.22,-41.92 32.97,-32.79 29.38,-29.21 z"
             id="path272"
             style="fill:#ffffff" />
        </g>
        <g
           id="path5921"
           style="fill:#ffffff">
          <path
             d="m 687.66,482.47 25.31,-25.15 29.38,-29.22 23.82,-23.71 v -0.03 c 11.75,14.6 10.84,35.95 -2.78,49.41 l -25.58,25.51 -26.7,26.59 -3.59,3.57 h 0.03 c -13.61,13.55 -35.09,14.43 -49.75,2.67 z"
             id="path275"
             style="fill:#ffffff" />
        </g>
        <g
           id="path5923"
           style="fill:#ffffff">
          <path
             d="m 896.5,496.45 -88.22,87.81 -16.06,16.06 -15.26,15.14 h 0.03 c -13.61,13.56 -35.09,14.43 -49.72,2.69 l 42.21,-41.91 15.35,-15.26 88.24,-87.86 17.66,-17.55 29.39,-29.23 23.81,-23.71 c 11.74,14.58 10.82,35.91 -2.76,49.41 l -25.58,25.51 z"
             id="path278"
             style="fill:#ffffff" />
        </g>
        <g
           id="path5925"
           style="fill:#ffffff">
          <path
             d="m 788.8,545.92 49.12,-48.85 -0.14,-0.05 c -14.7,-11.75 -36.24,-10.87 -49.84,2.71 l 0.03,-0.03 -22.91,22.75 -29.72,29.59 -0.12,0.12 -28.7,28.53 0.14,0.05 c 14.67,11.81 36.2,10.93 49.84,-2.69 l 2.4,-2.4 24.64,-24.5 z"
             id="path281"
             style="fill:#ffffff" />
        </g>
        <g
           id="path5927"
           style="fill:#ffffff">
          <path
             d="m 729.23,150.42 18.88,-18.8 -0.12,0.12 21.45,-21.33 c 11.87,14.58 10.95,36 -2.65,49.52 l -14,13.91 -15.15,15.1 -4.47,4.47 -34.44,34.25 c -11.84,-14.6 -10.95,-35.99 2.65,-49.55 l 12.7,-12.61 0.08,-0.1 z"
             id="path284"
             style="fill:#ffffff" />
        </g>
        <g
           id="polygon5929"
           style="fill:#ffffff">
          <path
             d="m 735.7,656.46 -43.59,43.33 -23.67,-23.56 43.58,-43.33 z"
             id="path287"
             style="fill:#ffffff" />
        </g>
        <g
           id="path5931"
           style="fill:#ffffff">
          <path
             d="m 787.68,662.91 -24.81,24.62 -15.27,15.14 h 0.04 c -13.61,13.55 -35.09,14.43 -49.76,2.69 l 42.48,-42.44 h 47.32 z"
             id="path290"
             style="fill:#ffffff" />
        </g>
        <g
           id="path5933"
           style="fill:#ffffff">
          <path
             d="m 894.91,509.26 42.87,-42.67 v 0.03 c 11.84,14.58 10.95,36 -2.65,49.55 l -16.64,16.55 -73.09,72.71 -56.37,56.12 c -11.87,-14.55 -10.95,-36 2.66,-49.52 l 30.17,-29.99 72.89,-72.54 z"
             id="path293"
             style="fill:#ffffff" />
        </g>
        <g
           id="path5935"
           style="fill:#ffffff">
          <path
             d="m 741.73,720.01 58.51,-58.22 35.55,-35.31 0.14,0.05 c 11.72,14.55 10.81,35.88 -2.78,49.41 l -44.35,44.19 z"
             id="path296"
             style="fill:#ffffff" />
        </g>
        <g
           id="polygon5937"
           style="fill:#ffffff">
          <path
             d="m 823.54,743.33 -31.86,31.52 -0.07,-46.55 31.89,-31.78 z"
             id="path299"
             style="fill:#ffffff" />
        </g>
        <g
           id="path5939"
           style="fill:#ffffff">
          <path
             d="m 844.24,489.89 0.04,-0.05 c -11.84,-14.58 -10.95,-36 2.65,-49.52 l 96.74,-96.17 0.08,-0.05 c 11.87,14.54 10.95,35.96 -2.65,49.51 l -96.67,96.17 z"
             id="path302"
             style="fill:#ffffff" />
        </g>
        <g
           id="path5941"
           style="fill:#ffffff">
          <path
             d="m 863.5,617.78 h -19.05 l 32.46,-32.27 0.14,0.12 c 7.42,7.35 7.42,19.29 0,26.7 -3.82,3.79 -8.87,5.55 -13.89,5.45 z"
             id="path305"
             style="fill:#ffffff" />
        </g>
        <g
           id="path5943"
           style="fill:#ffffff">
          <path
             d="M 171.54,109.01 C 156.87,97.17 135.3,98.02 121.68,111.6 l 23.56,23.42 z"
             id="path308"
             style="fill:#ffffff" />
        </g>
        <g
           id="path5945"
           style="fill:#ffffff">
          <path
             d="m 254.52,84.93 -34.46,34.32 -33.94,33.8 -36.55,36.35 -44.56,44.29 c -11.72,-14.6 -10.81,-35.94 2.76,-49.43 l 33.92,-33.81 32.92,-32.72 29.9,-29.76 0.29,-0.37 c 13.63,-13.51 35.08,-14.42 49.72,-2.67 z"
             id="path311"
             style="fill:#ffffff" />
        </g>
        <g
           id="path5947"
           style="fill:#ffffff">
          <path
             d="m 258.08,139.98 -25.58,25.51 -35.06,34.92 -15.26,15.18 v -0.03 c -13.59,13.55 -35.06,14.43 -49.72,2.71 l 42.21,-41.93 32.95,-32.78 29.39,-29.25 23.78,-23.69 c 11.79,14.51 10.88,35.84 -2.71,49.36 z"
             id="path314"
             style="fill:#ffffff" />
        </g>
        <g
           id="path5949"
           style="fill:#ffffff">
          <path
             d="m 317.53,138.47 -60.93,60.69 -80.15,79.72 -0.03,0.07 c -11.76,-14.58 -10.85,-35.92 2.74,-49.41 l 63.22,-62.9 77.87,-77.51 0.03,-0.03 c 11.75,14.54 10.83,35.88 -2.75,49.37 z"
             id="path317"
             style="fill:#ffffff" />
        </g>
        <g
           id="path5951"
           style="fill:#ffffff">
          <path
             d="m 167.22,300.05 26.73,-26.65 37.97,-37.74 29.27,-29.13 33.32,-33.17 0.12,0.12 c 11.75,14.58 10.81,35.91 -2.78,49.43 l -18.62,18.52 -33.38,33.2 -22.85,22.74 c -13.61,13.57 -35.14,14.46 -49.78,2.68 z"
             id="path320"
             style="fill:#ffffff" />
        </g>
        <g
           id="path5953"
           style="fill:#ffffff">
          <path
             d="m 294.11,231.56 23.56,23.42 -44.56,44.36 0.12,-0.12 c -13.61,13.55 -35.09,14.43 -49.75,2.69 0.01,-0.01 70.63,-70.35 70.63,-70.35 z"
             id="path323"
             style="fill:#ffffff" />
        </g>
        <g
           id="path5955"
           style="fill:#ffffff">
          <path
             d="m 376.1,313.12 -23.48,-23.37 -20.37,20.25 -73.79,73.43 0.05,-0.03 c 14.53,11.81 35.38,11.53 48.21,-1.23 0,0 69.38,-69.05 69.38,-69.05 z"
             id="path326"
             style="fill:#ffffff" />
        </g>
        <g
           id="path5957"
           style="fill:#ffffff">
          <path
             d="m 347.17,284.08 -23.5,-23.37 -20.34,20.25 -73.8,73.43 0.04,-0.05 c 14.51,11.81 35.36,11.55 48.21,-1.23 -0.01,0 69.39,-69.03 69.39,-69.03 z"
             id="path329"
             style="fill:#ffffff" />
        </g>
        <g
           id="path5959"
           style="fill:#ffffff">
          <path
             d="M 117.74,396.07 94.18,372.64 v -0.05 c 13.63,-13.6 35.14,-14.49 49.84,-2.71 -0.01,0 -26.28,26.19 -26.28,26.19 z"
             id="path332"
             style="fill:#ffffff" />
        </g>
        <g
           id="path5961"
           style="fill:#ffffff">
          <path
             d="m 132.37,439.57 -32.06,31.92 -28.76,28.61 v -0.03 c -11.84,-14.6 -10.93,-36.03 2.71,-49.58 l -0.38,0.39 34.92,-34.76 4.51,-4.49 55.34,-55.08 28.75,-28.62 v 0.04 c 11.84,14.6 10.93,36.03 -2.71,49.58 l -45.18,44.96 c 0,0.01 -17.14,17.06 -17.14,17.06 z"
             id="path335"
             style="fill:#ffffff" />
        </g>
        <g
           id="path5963"
           style="fill:#ffffff">
          <path
             d="m 217.32,413.61 -75.17,74.79 -66.12,65.81 -0.08,-0.17 c -11.84,-14.6 -10.93,-36 2.7,-49.58 l 75.12,-74.77 66.12,-65.78 0.05,0.14 c 11.84,14.6 10.93,36.05 -2.71,49.58 z"
             id="path338"
             style="fill:#ffffff" />
        </g>
        <g
           id="path5965"
           style="fill:#ffffff">
          <path
             d="m 162.03,478.51 c -13.64,13.57 -14.51,34.97 -2.71,49.58 l 0.09,0.12 106,-105.46 -47.44,0.12 c 0,-0.01 -55.94,55.64 -55.94,55.64 z"
             id="path341"
             style="fill:#ffffff" />
        </g>
        <g
           id="path5967"
           style="fill:#ffffff">
          <path
             d="m 190.56,554.88 c -13.64,13.6 -35.18,14.49 -49.86,2.67 h 0.03 l 46.3,-46.07 52,-51.74 37.06,-36.89 47.44,-0.12 -71.53,71.22 -61.04,60.7 z"
             id="path344"
             style="fill:#ffffff" />
        </g>
        <g
           id="path5969"
           style="fill:#ffffff">
          <path
             d="m 433.04,542.9 -64.65,64.35 h -0.03 c -11.84,-14.54 -10.95,-36 2.65,-49.52 L 385.9,542.9 c 0.01,0 47.14,0 47.14,0 z"
             id="path347"
             style="fill:#ffffff" />
        </g>
        <g
           id="path5971"
           style="fill:#ffffff">
          <path
             d="M 316.39,669.95 188.02,797.61 c 14.64,11.81 36.31,11.1 49.93,-2.45 l 125.8,-125.2 h -47.36 z"
             id="path350"
             style="fill:#ffffff" />
        </g>
        <g
           id="path5973"
           style="fill:#ffffff">
          <path
             d="M 217.78,640.46 194.21,617 v -0.05 c 13.64,-13.55 35.17,-14.43 49.84,-2.69 z"
             id="path353"
             style="fill:#ffffff" />
        </g>
        <g
           id="path5975"
           style="fill:#ffffff">
          <path
             d="m 309.83,607.14 -75.17,74.77 -66.12,65.81 -0.05,-0.12 c -11.84,-14.6 -10.93,-36.05 2.67,-49.58 l 75.12,-74.77 66.12,-65.81 0.05,0.1 c 11.84,14.67 10.93,36.07 -2.71,49.64 z"
             id="path356"
             style="fill:#ffffff" />
        </g>
        <g
           id="path5977"
           style="fill:#ffffff">
          <path
             d="m 309.26,665.93 c 13.04,-13.6 13.72,-34.49 2.09,-48.86 l -22.96,22.85 -66.02,65.71 c -13.64,13.6 -14.51,35 -2.71,49.58 l 0.09,0.12 71.94,-71.61 17.31,-17.19 z"
             id="path359"
             style="fill:#ffffff" />
        </g>
        <g
           id="path5979"
           style="fill:#ffffff">
          <path
             d="m 507.72,701.47 -23.44,-23.33 -38.18,37.93 -73.79,73.44 0.05,-0.07 c 14.53,11.81 35.38,11.53 48.21,-1.23 z"
             id="path362"
             style="fill:#ffffff" />
        </g>
        <g
           id="path5981"
           style="fill:#ffffff">
          <path
             d="m 473.92,746.31 -41.37,41.17 h 0.07 c 14.51,11.81 35.36,11.47 48.21,-1.28 l 16.6,-16.49 21.28,-21.16 -23.47,-23.33 -21.2,21.05 c -0.01,-0.01 -0.12,0.04 -0.12,0.04 z"
             id="path365"
             style="fill:#ffffff" />
        </g>
        <g
           id="path5983"
           style="fill:#ffffff">
          <path
             d="m 442.97,545.21 23.56,23.44 -88.26,87.81 c -11.87,-14.55 -10.95,-36 2.66,-49.52 -0.01,-0.01 62.04,-61.73 62.04,-61.73 z"
             id="path368"
             style="fill:#ffffff" />
        </g>
        <g
           id="path5985"
           style="fill:#ffffff">
          <path
             d="m 333.54,759.11 c -13.61,13.55 -35.15,14.42 -49.78,2.62 l 0.31,-0.12 188.13,-187.22 23.48,23.34 c 0,0 -162.14,161.38 -162.14,161.38 z"
             id="path371"
             style="fill:#ffffff" />
        </g>
        <g
           id="path5987"
           style="fill:#ffffff">
          <path
             d="m 339.47,811.56 c -13.64,13.6 -35.14,14.43 -49.81,2.67 l 0.34,-0.17 211.47,-210.44 23.47,23.34 z"
             id="path374"
             style="fill:#ffffff" />
        </g>
      </g>
    </g>
  </g>
</svg>
